<?xml version="1.0" standalone="no"?>
<!DOCTYPE svg PUBLIC "-//W3C//DTD SVG 20010904//EN"
 "http://www.w3.org/TR/2001/REC-SVG-20010904/DTD/svg10.dtd">
<svg version="1.0" xmlns="http://www.w3.org/2000/svg"
 width="512.000000pt" height="512.000000pt" viewBox="0 0 512.000000 512.000000"
 preserveAspectRatio="xMidYMid meet">
<metadata>
Created by potrace 1.11, written by Peter Selinger 2001-2013
</metadata>
<g transform="translate(0.000000,512.000000) scale(0.100000,-0.100000)"
fill="#000000" stroke="none">
<path d="M2589 5096 c-2 -2 -62 -7 -134 -10 -71 -3 -149 -8 -172 -11 -24 -3
-60 -7 -80 -9 -21 -3 -54 -7 -73 -11 -19 -3 -50 -7 -68 -9 -18 -2 -35 -6 -39
-10 -3 -3 -14 -6 -24 -6 -9 0 -57 -12 -105 -26 -49 -14 -93 -27 -99 -28 -5 -2
-19 -7 -30 -11 -11 -5 -40 -16 -65 -26 -25 -9 -72 -30 -105 -45 -33 -15 -62
-28 -65 -29 -3 0 -21 -9 -40 -19 -96 -51 -152 -84 -229 -135 -46 -31 -90 -60
-98 -66 -9 -5 -26 -19 -38 -30 -12 -11 -48 -42 -81 -70 -66 -55 -259 -249
-316 -317 -20 -24 -49 -56 -63 -72 -14 -15 -25 -29 -25 -32 0 -3 -6 -12 -13
-19 -6 -8 -17 -20 -22 -27 -22 -27 -158 -232 -181 -273 -6 -11 -32 -56 -58
-100 -25 -44 -46 -85 -46 -92 0 -6 -3 -13 -7 -15 -10 -4 -47 -81 -88 -183 -17
-44 -35 -89 -40 -100 -4 -11 -9 -24 -10 -30 -5 -20 -37 -121 -50 -155 -7 -19
-13 -39 -14 -45 -1 -5 -6 -28 -12 -50 -25 -90 -47 -193 -53 -241 -2 -22 -5
-39 -6 -39 -2 0 -6 -32 -15 -125 -14 -148 -5 -395 19 -525 38 -202 76 -323
144 -459 40 -79 124 -215 161 -257 6 -8 28 -34 49 -58 56 -67 141 -144 212
-194 25 -17 46 -34 48 -39 2 -4 10 -8 18 -8 8 0 14 -3 14 -7 0 -5 10 -13 23
-19 144 -74 190 -95 232 -105 62 -16 62 -16 68 -59 5 -31 14 -75 21 -105 2 -5
6 -23 10 -40 4 -16 11 -39 16 -50 5 -11 12 -31 16 -45 6 -24 66 -150 95 -200
18 -33 159 -170 174 -170 6 0 20 -8 31 -18 31 -29 234 -116 289 -125 11 -1 25
-6 32 -10 6 -4 24 -9 40 -12 25 -4 64 -12 143 -28 40 -9 124 -23 195 -33 22
-3 72 -7 110 -10 139 -10 191 -14 218 -18 15 -2 27 0 27 5 0 4 12 4 28 0 15
-4 70 -6 122 -4 100 3 113 3 133 2 31 -1 340 22 348 27 3 1 28 6 55 10 27 3
58 8 69 10 11 2 34 6 50 9 85 15 139 27 208 48 26 8 47 13 47 11 0 -2 36 12
81 31 44 19 85 35 91 35 22 0 175 110 221 158 39 42 137 190 137 207 0 3 7 19
15 35 9 17 13 30 10 30 -3 0 1 14 10 30 9 17 13 30 10 30 -3 0 1 16 9 35 8 19
17 51 21 72 3 21 8 52 11 68 4 17 7 36 7 43 0 6 6 12 12 12 22 0 258 103 275
120 3 3 31 23 64 45 156 105 270 219 379 380 56 84 147 261 147 288 0 9 4 18
9 21 4 3 16 34 26 68 19 65 22 76 30 118 6 34 23 115 26 123 0 1 2 16 4 32 1
17 6 57 10 90 14 108 7 456 -11 537 -8 35 -12 60 -18 98 -3 19 -15 69 -26 110
-11 41 -23 89 -27 105 -3 17 -10 36 -16 43 -5 6 -7 12 -3 12 5 0 -32 113 -54
165 -4 11 -15 38 -23 60 -8 22 -27 66 -41 97 -14 31 -26 61 -26 67 0 5 -3 11
-7 13 -5 2 -22 30 -39 63 -31 62 -100 191 -162 305 -19 36 -48 81 -64 101 -15
20 -28 42 -28 48 0 6 -4 11 -9 11 -4 0 -20 18 -35 40 -15 23 -51 67 -81 98
-30 31 -55 60 -55 64 0 9 -230 238 -253 253 -9 6 -58 42 -109 81 -51 39 -104
78 -118 85 -14 8 -27 17 -30 20 -3 4 -21 16 -40 27 -63 37 -205 117 -215 121
-5 2 -41 18 -80 36 -38 17 -92 40 -120 50 -27 10 -54 22 -60 26 -5 4 -37 15
-70 24 -33 9 -76 21 -95 26 -77 21 -193 43 -285 54 -27 4 -57 8 -65 10 -8 2
-62 7 -120 11 -58 3 -108 8 -111 10 -3 2 -8 2 -10 0z"/>
</g>
</svg>
